<svg width="25" height="30" viewBox="0 0 25 30" fill="none" xmlns="http://www.w3.org/2000/svg">
<mask id="path-1-inside-1_293_615" fill="white">
<path fill-rule="evenodd" clip-rule="evenodd" d="M23.0132 26.1713C23.0132 26.9958 22.2773 27.6667 21.3729 27.6667H3.37721C2.47278 27.6667 1.73687 26.9958 1.73687 26.1714V3.82878C1.73687 3.00428 2.47278 2.33336 3.37721 2.33336H21.3728C22.2772 2.33339 23.0131 3.00425 23.0131 3.82872V20.5417C23.0131 20.9789 23.402 21.3333 23.8815 21.3333C24.361 21.3333 24.7499 20.9789 24.7499 20.5417V3.82872C24.7499 2.13108 23.235 0.75 21.3729 0.75H3.37721C1.51498 0.75 6.10608e-05 2.13108 0 3.82872V26.1713C6.56895e-05 27.8689 1.51502 29.25 3.37721 29.25H21.3728C23.235 29.25 24.75 27.8689 24.75 26.1713V24.5C24.75 24.0628 24.3611 23.7084 23.8816 23.7084C23.4021 23.7084 23.0132 24.0628 23.0132 24.5V26.1713Z"/>
<path fill-rule="evenodd" clip-rule="evenodd" d="M18.2869 10.0523V7.28154H6.46313V10.0523H18.2869ZM5.51452 11.8336H19.2355C19.7631 11.8336 20.1908 11.4437 20.1908 10.9628V6.37109C20.1908 5.89016 19.7631 5.50029 19.2355 5.50029H5.51452C4.98695 5.50029 4.55928 5.89016 4.55928 6.37109V10.9628C4.55928 11.4437 4.98695 11.8336 5.51452 11.8336Z"/>
<path fill-rule="evenodd" clip-rule="evenodd" d="M17.864 18.437C18.0289 18.5727 18.2371 18.6405 18.4453 18.6405C18.6677 18.6405 18.8899 18.5632 19.0595 18.4086C19.3986 18.0995 19.3986 17.5982 19.0595 17.289L16.1532 14.6397C16.1425 14.6299 16.1316 14.6205 16.1205 14.6113C15.7794 14.3308 15.2535 14.3403 14.925 14.6397C14.5859 14.9489 14.5859 15.4501 14.925 15.7593L17.8313 18.4086C17.842 18.4184 17.8529 18.4278 17.864 18.437ZM18.4765 17.8488L18.4453 17.8788ZM18.4765 17.8488L18.4453 17.8788Z"/>
<path fill-rule="evenodd" clip-rule="evenodd" d="M17.8313 14.6398C17.842 14.63 17.853 14.6206 17.8641 14.6114C18.2052 14.3309 18.7311 14.3405 19.0595 14.6398C19.3986 14.9489 19.3986 15.4502 19.0595 15.7593L16.1533 18.4087C16.1426 18.4184 16.1317 18.4279 16.1205 18.437C15.9556 18.5727 15.7473 18.6406 15.5392 18.6406C15.3169 18.6406 15.0947 18.5633 14.9251 18.4087C14.586 18.0995 14.586 17.5983 14.9251 17.2891L17.8313 14.6398Z"/>
<path fill-rule="evenodd" clip-rule="evenodd" d="M5.70274 22.5895C5.22323 22.5895 4.83433 22.9439 4.83433 23.3812C4.83433 23.8184 5.22317 24.1728 5.70274 24.1728H9.81274C10.2924 24.1728 10.6811 23.8184 10.6811 23.3812C10.6811 22.9439 10.2923 22.5895 9.81274 22.5895H5.70274Z"/>
<path fill-rule="evenodd" clip-rule="evenodd" d="M6.88942 21.5083C6.88942 21.071 7.27831 20.7166 7.75782 20.7166C8.23733 20.7166 8.62623 21.071 8.62623 21.5083V25.255C8.62623 25.6922 8.23733 26.0467 7.75782 26.0467C7.27825 26.0467 6.88942 25.6923 6.88942 25.255V21.5083Z"/>
<path fill-rule="evenodd" clip-rule="evenodd" d="M5.70274 15.7326C5.22323 15.7326 4.83433 16.087 4.83433 16.5242C4.83433 16.9615 5.22317 17.3159 5.70274 17.3159H9.81274C10.2924 17.3159 10.6811 16.9615 10.6811 16.5242C10.6811 16.087 10.2923 15.7326 9.81274 15.7326H5.70274Z"/>
<path fill-rule="evenodd" clip-rule="evenodd" d="M14.9373 21.4022C14.4578 21.4022 14.0689 21.7566 14.0689 22.1938C14.0689 22.6311 14.4577 22.9855 14.9373 22.9855H19.0473C19.5268 22.9855 19.9157 22.6311 19.9157 22.1938C19.9157 21.7566 19.5268 21.4022 19.0473 21.4022H14.9373Z"/>
<path fill-rule="evenodd" clip-rule="evenodd" d="M14.9373 23.7773C14.4578 23.7773 14.0689 24.1317 14.0689 24.569C14.0689 25.0062 14.4577 25.3606 14.9373 25.3606H19.0473C19.5268 25.3606 19.9157 25.0062 19.9157 24.569C19.9157 24.1317 19.5268 23.7773 19.0473 23.7773H14.9373Z"/>
</mask>
<path fill-rule="evenodd" clip-rule="evenodd" d="M23.0132 26.1713C23.0132 26.9958 22.2773 27.6667 21.3729 27.6667H3.37721C2.47278 27.6667 1.73687 26.9958 1.73687 26.1714V3.82878C1.73687 3.00428 2.47278 2.33336 3.37721 2.33336H21.3728C22.2772 2.33339 23.0131 3.00425 23.0131 3.82872V20.5417C23.0131 20.9789 23.402 21.3333 23.8815 21.3333C24.361 21.3333 24.7499 20.9789 24.7499 20.5417V3.82872C24.7499 2.13108 23.235 0.75 21.3729 0.75H3.37721C1.51498 0.75 6.10608e-05 2.13108 0 3.82872V26.1713C6.56895e-05 27.8689 1.51502 29.25 3.37721 29.25H21.3728C23.235 29.25 24.75 27.8689 24.75 26.1713V24.5C24.75 24.0628 24.3611 23.7084 23.8816 23.7084C23.4021 23.7084 23.0132 24.0628 23.0132 24.5V26.1713Z" fill="#FBED10"/>
<path fill-rule="evenodd" clip-rule="evenodd" d="M18.2869 10.0523V7.28154H6.46313V10.0523H18.2869ZM5.51452 11.8336H19.2355C19.7631 11.8336 20.1908 11.4437 20.1908 10.9628V6.37109C20.1908 5.89016 19.7631 5.50029 19.2355 5.50029H5.51452C4.98695 5.50029 4.55928 5.89016 4.55928 6.37109V10.9628C4.55928 11.4437 4.98695 11.8336 5.51452 11.8336Z" fill="#FBED10"/>
<path fill-rule="evenodd" clip-rule="evenodd" d="M17.864 18.437C18.0289 18.5727 18.2371 18.6405 18.4453 18.6405C18.6677 18.6405 18.8899 18.5632 19.0595 18.4086C19.3986 18.0995 19.3986 17.5982 19.0595 17.289L16.1532 14.6397C16.1425 14.6299 16.1316 14.6205 16.1205 14.6113C15.7794 14.3308 15.2535 14.3403 14.925 14.6397C14.5859 14.9489 14.5859 15.4501 14.925 15.7593L17.8313 18.4086C17.842 18.4184 17.8529 18.4278 17.864 18.437ZM18.4765 17.8488L18.4453 17.8788ZM18.4765 17.8488L18.4453 17.8788Z" fill="#FBED10"/>
<path fill-rule="evenodd" clip-rule="evenodd" d="M17.8313 14.6398C17.842 14.63 17.853 14.6206 17.8641 14.6114C18.2052 14.3309 18.7311 14.3405 19.0595 14.6398C19.3986 14.9489 19.3986 15.4502 19.0595 15.7593L16.1533 18.4087C16.1426 18.4184 16.1317 18.4279 16.1205 18.437C15.9556 18.5727 15.7473 18.6406 15.5392 18.6406C15.3169 18.6406 15.0947 18.5633 14.9251 18.4087C14.586 18.0995 14.586 17.5983 14.9251 17.2891L17.8313 14.6398Z" fill="#FBED10"/>
<path fill-rule="evenodd" clip-rule="evenodd" d="M5.70274 22.5895C5.22323 22.5895 4.83433 22.9439 4.83433 23.3812C4.83433 23.8184 5.22317 24.1728 5.70274 24.1728H9.81274C10.2924 24.1728 10.6811 23.8184 10.6811 23.3812C10.6811 22.9439 10.2923 22.5895 9.81274 22.5895H5.70274Z" fill="#FBED10"/>
<path fill-rule="evenodd" clip-rule="evenodd" d="M6.88942 21.5083C6.88942 21.071 7.27831 20.7166 7.75782 20.7166C8.23733 20.7166 8.62623 21.071 8.62623 21.5083V25.255C8.62623 25.6922 8.23733 26.0467 7.75782 26.0467C7.27825 26.0467 6.88942 25.6923 6.88942 25.255V21.5083Z" fill="#FBED10"/>
<path fill-rule="evenodd" clip-rule="evenodd" d="M5.70274 15.7326C5.22323 15.7326 4.83433 16.087 4.83433 16.5242C4.83433 16.9615 5.22317 17.3159 5.70274 17.3159H9.81274C10.2924 17.3159 10.6811 16.9615 10.6811 16.5242C10.6811 16.087 10.2923 15.7326 9.81274 15.7326H5.70274Z" fill="#FBED10"/>
<path fill-rule="evenodd" clip-rule="evenodd" d="M14.9373 21.4022C14.4578 21.4022 14.0689 21.7566 14.0689 22.1938C14.0689 22.6311 14.4577 22.9855 14.9373 22.9855H19.0473C19.5268 22.9855 19.9157 22.6311 19.9157 22.1938C19.9157 21.7566 19.5268 21.4022 19.0473 21.4022H14.9373Z" fill="#FBED10"/>
<path fill-rule="evenodd" clip-rule="evenodd" d="M14.9373 23.7773C14.4578 23.7773 14.0689 24.1317 14.0689 24.569C14.0689 25.0062 14.4577 25.3606 14.9373 25.3606H19.0473C19.5268 25.3606 19.9157 25.0062 19.9157 24.569C19.9157 24.1317 19.5268 23.7773 19.0473 23.7773H14.9373Z" fill="#FBED10"/>
<path d="M18.4765 17.8488L19.1691 17.1275L18.4765 16.4625L17.7839 17.1275L18.4765 17.8488ZM17.7839 17.1275L17.7527 17.1574L19.138 18.6001L19.1691 18.5701L17.7839 17.1275ZM17.7839 18.5701L18.3669 19.1299L19.7521 17.6873L19.1691 17.1275L17.7839 18.5701ZM14.8154 18.5702L14.8465 18.6L16.2318 17.1575L16.2007 17.1276L14.8154 18.5702ZM21.3728 2.33336L21.3729 0.333364H21.3728V2.33336ZM0 3.82872L-2 3.82865V3.82872H0ZM0 26.1713H-2V26.1714L0 26.1713ZM21.3728 29.25V31.25H21.3728L21.3728 29.25ZM18.2869 7.28154H20.2869V5.28154H18.2869V7.28154ZM18.2869 10.0523V12.0523H20.2869V10.0523H18.2869ZM6.46313 7.28154V5.28154H4.46313V7.28154H6.46313ZM6.46313 10.0523H4.46313V12.0523H6.46313V10.0523ZM17.864 18.437L16.5932 19.9813L16.5932 19.9814L17.864 18.437ZM19.0595 18.4086L20.4066 19.8869L20.4069 19.8866L19.0595 18.4086ZM19.0595 17.289L20.4069 15.811L20.4069 15.811L19.0595 17.289ZM16.1532 14.6397L17.5006 13.1617L17.5004 13.1614L16.1532 14.6397ZM16.1205 14.6113L17.391 13.0667L17.391 13.0667L16.1205 14.6113ZM14.925 14.6397L13.5778 13.1616L13.5776 13.1617L14.925 14.6397ZM14.925 15.7593L13.5776 17.2373L13.5776 17.2373L14.925 15.7593ZM17.8313 18.4086L19.1787 16.9306L19.1786 16.9306L17.8313 18.4086ZM17.8313 14.6398L16.4845 13.1613L16.484 13.1617L17.8313 14.6398ZM17.8641 14.6114L16.5938 13.0666L16.5938 13.0667L17.8641 14.6114ZM19.0595 14.6398L20.4069 13.1617L20.4068 13.1616L19.0595 14.6398ZM19.0595 15.7593L20.4069 17.2374L20.4069 17.2374L19.0595 15.7593ZM16.1533 18.4087L17.5004 19.8869L17.5006 19.8867L16.1533 18.4087ZM16.1205 18.437L17.3911 19.9816L17.3911 19.9816L16.1205 18.437ZM14.9251 18.4087L16.2725 16.9306H16.2725L14.9251 18.4087ZM14.9251 17.2891L13.5777 15.8111L13.5777 15.8111L14.9251 17.2891ZM21.3729 29.6667C23.2037 29.6667 25.0132 28.2705 25.0132 26.1713H21.0132C21.0132 25.9661 21.1086 25.8197 21.1848 25.7502C21.2582 25.6832 21.3294 25.6667 21.3729 25.6667V29.6667ZM-0.263127 26.1714C-0.263127 28.2706 1.54646 29.6667 3.37721 29.6667V25.6667C3.42065 25.6667 3.49181 25.6832 3.56525 25.7502C3.64147 25.8196 3.73687 25.966 3.73687 26.1714H-0.263127ZM3.37721 0.333364C1.54631 0.333364 -0.263127 1.72965 -0.263127 3.82878H3.73687C3.73687 4.03404 3.64151 4.1804 3.56531 4.24987C3.49188 4.31681 3.42069 4.33336 3.37721 4.33336V0.333364ZM21.3728 0.333364H3.37721V4.33336H21.3728V0.333364ZM25.0131 3.82872C25.0131 1.72946 23.2035 0.333426 21.3729 0.333364L21.3727 4.33336C21.3293 4.33336 21.2581 4.31683 21.1847 4.24991C21.1085 4.18044 21.0131 4.03405 21.0131 3.82872H25.0131ZM23.8815 19.3333C24.3282 19.3333 25.0131 19.704 25.0131 20.5417H21.0131C21.0131 22.2538 22.4758 23.3333 23.8815 23.3333V19.3333ZM22.7499 20.5417C22.7499 19.704 23.4349 19.3333 23.8815 19.3333V23.3333C25.2872 23.3333 26.7499 22.2538 26.7499 20.5417H22.7499ZM21.3729 2.75C22.3086 2.75 22.7499 3.40573 22.7499 3.82872H26.7499C26.7499 0.856428 24.1615 -1.25 21.3729 -1.25V2.75ZM2 3.8288C2.00002 3.40575 2.44142 2.75 3.37721 2.75V-1.25C0.588537 -1.25 -1.99989 0.856408 -2 3.82865L2 3.8288ZM2 26.1713V3.82872H-2V26.1713H2ZM3.37721 27.25C2.44147 27.25 2.00002 26.5942 2 26.1712L-2 26.1714C-1.99988 29.1435 0.588565 31.25 3.37721 31.25V27.25ZM21.3728 27.25H3.37721V31.25H21.3728V27.25ZM22.75 26.1713C22.75 26.5941 22.3087 27.25 21.3728 27.25L21.3728 31.25C24.1613 31.25 26.75 29.1437 26.75 26.1713H22.75ZM23.8816 25.7084C23.4349 25.7084 22.75 25.3377 22.75 24.5H26.75C26.75 22.7879 25.2873 21.7084 23.8816 21.7084V25.7084ZM25.0132 24.5C25.0132 25.3377 24.3283 25.7084 23.8816 25.7084V21.7084C22.4759 21.7084 21.0132 22.7879 21.0132 24.5H25.0132ZM25.0132 26.1713V24.5H21.0132V26.1713H25.0132ZM3.37721 29.6667H21.3729V25.6667H3.37721V29.6667ZM-0.263127 3.82878V26.1714H3.73687V3.82878H-0.263127ZM25.0131 20.5417V3.82872H21.0131V20.5417H25.0131ZM22.7499 3.82872V20.5417H26.7499V3.82872H22.7499ZM3.37721 2.75H21.3729V-1.25H3.37721V2.75ZM22.75 24.5V26.1713H26.75V24.5H22.75ZM16.2869 7.28154V10.0523H20.2869V7.28154H16.2869ZM6.46313 9.28154H18.2869V5.28154H6.46313V9.28154ZM8.46313 10.0523V7.28154H4.46313V10.0523H8.46313ZM18.2869 8.05232H6.46313V12.0523H18.2869V8.05232ZM19.2355 9.83357H5.51452V13.8336H19.2355V9.83357ZM18.1908 10.9628C18.1908 10.169 18.8367 9.83357 19.2355 9.83357V13.8336C20.6895 13.8336 22.1908 12.7184 22.1908 10.9628H18.1908ZM18.1908 6.37109V10.9628H22.1908V6.37109H18.1908ZM19.2355 7.50029C18.8367 7.50029 18.1908 7.16488 18.1908 6.37109H22.1908C22.1908 4.61544 20.6895 3.50029 19.2355 3.50029V7.50029ZM5.51452 7.50029H19.2355V3.50029H5.51452V7.50029ZM6.55928 6.37109C6.55928 7.16488 5.91332 7.50029 5.51452 7.50029V3.50029C4.06058 3.50029 2.55928 4.61544 2.55928 6.37109H6.55928ZM6.55928 10.9628V6.37109H2.55928V10.9628H6.55928ZM5.51452 9.83357C5.91332 9.83357 6.55928 10.169 6.55928 10.9628H2.55928C2.55928 12.7184 4.06058 13.8336 5.51452 13.8336V9.83357ZM18.4453 16.6405C18.6625 16.6405 18.9134 16.7104 19.1348 16.8926L16.5932 19.9814C17.1445 20.435 17.8116 20.6405 18.4453 20.6405V16.6405ZM17.7124 16.9303C17.9429 16.7202 18.2141 16.6405 18.4453 16.6405V20.6405C19.1212 20.6405 19.8368 20.4062 20.4066 19.8869L17.7124 16.9303ZM17.7121 18.7671C17.4719 18.5481 17.3138 18.2167 17.3138 17.8488C17.3138 17.4809 17.4719 17.1496 17.7121 16.9306L20.4069 19.8866C21.6162 18.7842 21.6162 16.9134 20.4069 15.811L17.7121 18.7671ZM14.85 16.156C14.8352 16.1438 14.8206 16.1311 14.8061 16.118L17.5004 13.1614C17.4645 13.1287 17.428 13.0972 17.391 13.0667L14.85 16.156ZM16.2723 16.1178C16.0487 16.3216 15.7869 16.4026 15.562 16.4076C15.3382 16.4125 15.0785 16.3439 14.85 16.156L17.391 13.0667C16.2914 12.1623 14.6499 12.1844 13.5778 13.1616L16.2723 16.1178ZM16.2724 14.2813C16.5126 14.5002 16.6707 14.8316 16.6707 15.1995C16.6707 15.5674 16.5126 15.8987 16.2724 16.1177L13.5776 13.1617C12.3683 14.2641 12.3683 16.1349 13.5776 17.2373L16.2724 14.2813ZM19.1348 16.8926C19.1496 16.9048 19.1643 16.9175 19.1787 16.9306L16.4838 19.8866C16.5197 19.9193 16.5562 19.9509 16.5932 19.9813L19.1348 16.8926ZM19.1786 16.9306L16.2724 14.2812L13.5776 17.2373L16.4839 19.8866L19.1786 16.9306ZM19.1782 16.1183C19.1638 16.1313 19.1492 16.144 19.1344 16.1562L16.5938 13.0667C16.5567 13.0971 16.5202 13.1287 16.4845 13.1613L19.1782 16.1183ZM19.1344 16.1562C18.9059 16.3441 18.6463 16.4126 18.4226 16.4077C18.1979 16.4027 17.936 16.3218 17.7123 16.1179L20.4068 13.1616C19.3347 12.1845 17.6933 12.1625 16.5938 13.0666L19.1344 16.1562ZM17.7121 16.1178C17.4719 15.8988 17.3139 15.5674 17.3139 15.1996C17.3139 14.8317 17.4719 14.5003 17.7121 14.2813L20.4069 17.2374C21.6162 16.135 21.6162 14.2641 20.4069 13.1617L17.7121 16.1178ZM14.8061 16.9304C14.8206 16.9173 14.8352 16.9046 14.85 16.8924L17.3911 19.9816C17.4281 19.9511 17.4646 19.9196 17.5004 19.8869L14.8061 16.9304ZM14.85 16.8924C15.0711 16.7105 15.3216 16.6406 15.5392 16.6406V20.6406C16.173 20.6406 16.8401 20.4348 17.3911 19.9816L14.85 16.8924ZM15.5392 16.6406C15.7702 16.6406 16.0417 16.7202 16.2725 16.9306L13.5777 19.8867C14.1478 20.4064 14.8635 20.6406 15.5392 20.6406V16.6406ZM16.2725 16.9306C16.5127 17.1496 16.6707 17.481 16.6707 17.8489C16.6707 18.2168 16.5127 18.5481 16.2725 18.7671L13.5777 15.8111C12.3684 16.9135 12.3684 18.7843 13.5777 19.8867L16.2725 16.9306ZM16.2725 18.7671L19.1787 16.1178L16.484 13.1617L13.5777 15.8111L16.2725 18.7671ZM17.7121 14.2813L14.8059 16.9306L17.5006 19.8867L20.4069 17.2374L17.7121 14.2813ZM6.83433 23.3812C6.83433 24.2188 6.14941 24.5895 5.70274 24.5895V20.5895C4.29705 20.5895 2.83433 21.669 2.83433 23.3812H6.83433ZM5.70274 22.1728C6.14944 22.1728 6.83433 22.5436 6.83433 23.3812H2.83433C2.83433 25.0932 4.29689 26.1728 5.70274 26.1728V22.1728ZM8.68114 23.3812C8.68114 22.5437 9.366 22.1728 9.81274 22.1728V26.1728C11.2187 26.1728 12.6811 25.0931 12.6811 23.3812H8.68114ZM9.81274 24.5895C9.36603 24.5895 8.68114 24.2187 8.68114 23.3812H12.6811C12.6811 21.6691 11.2186 20.5895 9.81274 20.5895V24.5895ZM5.70274 24.5895H9.81274V20.5895H5.70274V24.5895ZM9.81274 22.1728H5.70274V26.1728H9.81274V22.1728ZM8.88942 21.5083C8.88942 22.3459 8.20449 22.7166 7.75782 22.7166V18.7166C6.35213 18.7166 4.88942 19.7962 4.88942 21.5083H8.88942ZM7.75782 22.7166C7.31115 22.7166 6.62623 22.3459 6.62623 21.5083H10.6262C10.6262 19.7962 9.16351 18.7166 7.75782 18.7166V22.7166ZM6.62623 25.255C6.62623 24.4174 7.31106 24.0467 7.75782 24.0467V28.0467C9.1636 28.0467 10.6262 26.967 10.6262 25.255H6.62623ZM7.75782 24.0467C8.20452 24.0467 8.88942 24.4175 8.88942 25.255H4.88942C4.88942 26.9671 6.35198 28.0467 7.75782 28.0467V24.0467ZM8.88942 25.255V21.5083H4.88942V25.255H8.88942ZM6.62623 21.5083V25.255H10.6262V21.5083H6.62623ZM6.83433 16.5242C6.83433 17.3619 6.14941 17.7326 5.70274 17.7326V13.7326C4.29705 13.7326 2.83433 14.8121 2.83433 16.5242H6.83433ZM5.70274 15.3159C6.14944 15.3159 6.83433 15.6866 6.83433 16.5242H2.83433C2.83433 18.2363 4.29689 19.3159 5.70274 19.3159V15.3159ZM8.68114 16.5242C8.68114 15.6867 9.366 15.3159 9.81274 15.3159V19.3159C11.2187 19.3159 12.6811 18.2362 12.6811 16.5242H8.68114ZM9.81274 17.7326C9.36604 17.7326 8.68114 17.3618 8.68114 16.5242H12.6811C12.6811 14.8122 11.2186 13.7326 9.81274 13.7326V17.7326ZM5.70274 17.7326H9.81274V13.7326H5.70274V17.7326ZM9.81274 15.3159H5.70274V19.3159H9.81274V15.3159ZM16.0689 22.1938C16.0689 23.0315 15.384 23.4022 14.9373 23.4022V19.4022C13.5316 19.4022 12.0689 20.4817 12.0689 22.1938H16.0689ZM14.9373 20.9855C15.384 20.9855 16.0689 21.3563 16.0689 22.1938H12.0689C12.0689 23.9058 13.5314 24.9855 14.9373 24.9855V20.9855ZM17.9157 22.1938C17.9157 21.3563 18.6006 20.9855 19.0473 20.9855V24.9855C20.4531 24.9855 21.9157 23.9059 21.9157 22.1938H17.9157ZM19.0473 23.4022C18.6006 23.4022 17.9157 23.0314 17.9157 22.1938H21.9157C21.9157 20.4818 20.4531 19.4022 19.0473 19.4022V23.4022ZM14.9373 23.4022H19.0473V19.4022H14.9373V23.4022ZM19.0473 20.9855H14.9373V24.9855H19.0473V20.9855ZM16.0689 24.569C16.0689 25.4066 15.3839 25.7773 14.9373 25.7773V21.7773C13.5316 21.7773 12.0689 22.8568 12.0689 24.569H16.0689ZM14.9373 23.3606C15.384 23.3606 16.0689 23.7314 16.0689 24.569H12.0689C12.0689 26.281 13.5314 27.3606 14.9373 27.3606V23.3606ZM17.9157 24.569C17.9157 23.7314 18.6006 23.3606 19.0473 23.3606V27.3606C20.4531 27.3606 21.9157 26.281 21.9157 24.569H17.9157ZM19.0473 25.7773C18.6006 25.7773 17.9157 25.4065 17.9157 24.569H21.9157C21.9157 22.8569 20.4531 21.7773 19.0473 21.7773V25.7773ZM14.9373 25.7773H19.0473V21.7773H14.9373V25.7773ZM19.0473 23.3606H14.9373V27.3606H19.0473V23.3606ZM14.8059 16.1177L17.7121 18.7671L20.4069 15.811L17.5006 13.1617L14.8059 16.1177Z" fill="#222222" mask="url(#path-1-inside-1_293_615)"/>
</svg>
