<?xml version="1.0" standalone="no"?>
<!DOCTYPE svg PUBLIC "-//W3C//DTD SVG 20010904//EN"
 "http://www.w3.org/TR/2001/REC-SVG-20010904/DTD/svg10.dtd">
<svg version="1.0" xmlns="http://www.w3.org/2000/svg"
 width="960.000000pt" height="960.000000pt" viewBox="0 0 960.000000 960.000000"
 preserveAspectRatio="xMidYMid meet">
<metadata>
Created by potrace 1.14, written by Peter Selinger 2001-2017
</metadata>
<g transform="translate(0.000000,960.000000) scale(0.100000,-0.100000)"
fill="#000000" stroke="none">
<path d="M1865 9362 c-1 -2 -38 -5 -81 -7 -44 -2 -101 -9 -129 -15 -27 -6 -58
-13 -68 -15 -122 -25 -341 -138 -437 -225 -19 -18 -44 -39 -56 -48 -43 -35
-151 -180 -191 -257 -23 -45 -55 -121 -70 -170 l-28 -90 0 -3730 c0 -2051 3
-3741 7 -3755 33 -111 43 -140 59 -177 11 -24 19 -47 19 -53 0 -5 5 -10 10
-10 6 0 10 -6 10 -14 0 -7 18 -40 40 -72 190 -282 506 -462 845 -481 135 -7
265 -8 265 -1 0 4 12 3 28 0 34 -9 134 -8 149 1 7 4 14 4 16 0 6 -10 129 -9
145 1 6 3 13 3 15 -1 6 -10 129 -9 145 1 6 3 13 3 15 -1 5 -7 116 -9 142 -3 6
1 12 1 15 0 15 -6 370 -4 370 2 0 4 7 5 16 1 22 -8 224 -9 224 -1 0 4 12 3 28
0 34 -9 134 -8 149 1 7 4 14 4 16 0 6 -10 129 -9 145 1 6 3 13 3 15 -1 6 -10
129 -9 145 1 6 3 13 3 15 -1 5 -7 116 -9 142 -3 6 1 12 1 15 0 15 -6 370 -4
370 2 0 4 7 5 16 1 22 -8 224 -9 224 -1 0 4 12 3 28 0 34 -9 134 -8 149 1 7 4
14 4 16 0 6 -10 129 -9 145 1 6 3 13 3 15 -1 6 -10 129 -9 145 1 6 3 13 3 15
-1 5 -7 116 -9 142 -3 6 1 12 1 15 0 15 -6 370 -4 370 2 0 4 7 5 16 1 22 -8
224 -9 224 -1 0 4 12 3 28 0 34 -9 134 -8 149 1 7 4 14 4 16 0 6 -10 129 -9
145 1 6 3 13 3 15 -1 6 -10 129 -9 145 1 6 3 13 3 15 -1 5 -7 116 -9 142 -3 6
1 12 1 15 0 15 -6 370 -4 370 2 0 4 7 5 16 1 22 -8 224 -9 224 -1 0 4 12 3 28
0 33 -9 134 -8 149 1 6 4 13 4 17 0 10 -10 196 -9 196 1 0 5 6 4 13 -1 6 -5
30 -8 52 -7 54 3 165 13 191 18 12 2 39 7 59 10 21 4 44 11 50 16 7 5 14 7 17
5 8 -8 153 46 218 81 193 102 365 273 454 451 30 58 72 183 81 238 3 22 9 54
11 70 8 50 7 627 -1 675 -4 25 -13 56 -20 70 -18 35 -83 100 -100 100 -7 0
-15 4 -17 10 -5 13 -107 38 -148 35 -102 -7 -182 -56 -234 -140 l-30 -50 -1
-212 c0 -117 -4 -213 -8 -213 -5 0 -5 -5 -1 -12 11 -17 11 -108 0 -108 -4 0
-4 -6 1 -12 5 -7 8 -24 7 -38 -2 -14 -5 -45 -8 -70 -2 -25 -5 -46 -6 -47 -2
-2 -3 -6 -4 -10 -4 -23 -33 -84 -59 -121 -72 -107 -181 -183 -313 -219 -16 -4
-1368 -9 -3004 -10 -2932 -3 -2976 -2 -3040 17 -108 32 -170 70 -243 144 -54
55 -113 169 -123 236 -8 50 -13 7260 -5 7275 3 5 6 18 8 30 4 30 9 47 21 78 7
16 12 31 12 33 0 10 61 93 92 126 50 52 163 121 218 133 8 2 31 9 50 14 42 13
5965 10 6020 -3 84 -20 190 -83 258 -155 53 -55 109 -168 118 -236 4 -27 6
-228 6 -445 -2 -465 -2 -388 1 -637 1 -112 -2 -203 -7 -203 -5 0 -4 -6 1 -12
10 -14 10 -404 0 -414 -3 -3 -2 -16 2 -28 4 -11 6 -32 4 -46 -2 -14 -3 -32 -3
-40 0 -8 0 -224 0 -480 0 -256 0 -472 0 -480 0 -8 1 -106 3 -217 1 -112 -2
-203 -7 -203 -5 0 -4 -6 1 -12 10 -14 10 -404 0 -414 -3 -3 -2 -16 2 -28 4
-11 6 -32 4 -46 -2 -14 -3 -32 -3 -40 5 -198 3 -420 -4 -420 -5 0 -4 -6 1 -12
7 -11 10 -401 3 -418 -1 -3 -1 -9 0 -15 7 -28 4 -195 -4 -195 -5 0 -4 -6 1
-12 7 -11 10 -401 3 -418 -1 -3 -1 -9 0 -15 1 -5 3 -59 4 -120 2 -129 18 -168
90 -232 156 -138 419 -60 461 137 6 28 11 5442 5 5460 -1 3 -4 23 -6 45 -6 72
-43 194 -84 282 -113 243 -343 441 -616 532 -49 17 -105 33 -124 36 -19 3 -57
9 -85 14 -27 5 -70 9 -95 9 -25 0 -48 1 -52 2 -25 6 -116 5 -129 -2 -9 -4 -19
-4 -23 -1 -9 9 -366 10 -366 1 0 -4 -7 -5 -16 -1 -22 8 -224 9 -224 1 0 -4
-12 -3 -27 0 -35 9 -135 8 -150 -1 -7 -4 -14 -4 -16 0 -5 7 -116 9 -142 3 -5
-1 -12 -1 -15 0 -15 6 -370 4 -370 -2 0 -4 -7 -5 -16 -1 -22 8 -224 9 -224 1
0 -4 -12 -3 -27 0 -35 9 -135 8 -150 -1 -7 -4 -14 -4 -16 0 -5 7 -116 9 -142
3 -5 -1 -12 -1 -15 0 -15 6 -370 4 -370 -2 0 -4 -7 -5 -16 -1 -22 8 -224 9
-224 1 0 -4 -12 -3 -27 0 -35 9 -135 8 -150 -1 -7 -4 -14 -4 -16 0 -5 7 -116
9 -142 3 -5 -1 -12 -1 -15 0 -15 6 -370 4 -370 -2 0 -4 -7 -5 -16 -1 -22 8
-224 9 -224 1 0 -4 -12 -3 -27 0 -35 9 -135 8 -150 -1 -7 -4 -14 -4 -16 0 -5
7 -116 9 -142 3 -5 -1 -12 -1 -15 0 -15 6 -370 4 -370 -2 0 -4 -7 -5 -16 -1
-22 8 -224 9 -224 1 0 -4 -12 -3 -27 0 -35 9 -135 8 -150 -1 -7 -4 -14 -4 -16
0 -5 7 -116 9 -142 3 -5 -1 -12 -1 -15 0 -15 6 -370 4 -370 -2 0 -4 -7 -5 -16
-1 -24 9 -224 9 -224 0 0 -5 -5 -5 -11 -1 -11 6 -218 12 -224 6z"/>
<path d="M2586 7843 c-1 -1 -24 -3 -51 -5 -28 -2 -54 -6 -60 -10 -5 -3 -26
-11 -46 -17 -19 -6 -58 -34 -86 -61 -91 -89 -86 -41 -86 -927 0 -723 1 -775
18 -820 10 -26 23 -53 29 -61 39 -47 73 -74 124 -99 l57 -28 2260 -2 c2136 -1
2263 0 2312 16 29 10 67 28 85 41 43 29 92 95 108 143 16 50 16 1587 0 1617
-6 11 -8 20 -5 20 12 0 -26 58 -62 96 -44 46 -115 82 -176 91 -36 5 -4415 11
-4421 6z m4064 -1017 l0 -441 -1882 1 c-1036 1 -1886 2 -1890 3 -5 0 -8 198
-8 440 l0 438 1890 0 1890 0 0 -441z"/>
<path d="M5663 4969 c-102 -40 -167 -131 -166 -234 0 -97 22 -129 183 -275 40
-36 92 -83 117 -106 l45 -41 -48 -45 c-27 -24 -80 -73 -119 -108 -154 -140
-183 -184 -179 -281 1 -41 9 -69 29 -103 26 -45 104 -121 113 -111 3 3 12 0
19 -7 15 -12 26 -15 101 -22 51 -5 132 17 178 48 28 19 145 122 234 206 72 67
62 66 116 18 26 -24 73 -66 103 -95 119 -110 138 -125 190 -150 43 -21 67 -26
120 -25 78 1 84 2 136 27 95 46 152 143 142 243 -8 91 -13 99 -172 247 -27 26
-76 70 -107 98 -32 28 -58 54 -58 59 0 4 9 16 21 26 11 9 44 40 73 67 29 28
83 76 120 108 92 81 121 133 120 217 0 36 -2 72 -5 80 -24 73 -100 146 -164
160 -5 1 -14 5 -20 10 -5 4 -46 7 -90 6 -83 -2 -140 -23 -191 -71 -11 -11 -59
-54 -104 -95 -46 -41 -99 -90 -118 -107 -18 -18 -38 -33 -43 -33 -6 0 -28 17
-51 38 -94 85 -163 148 -182 167 -36 35 -112 84 -142 91 -69 17 -149 14 -201
-7z"/>
<path d="M2532 4551 c-62 -21 -116 -61 -146 -109 -30 -49 -37 -72 -38 -131 0
-121 95 -225 228 -248 27 -5 355 -8 729 -8 764 1 738 -1 827 75 130 111 108
308 -43 396 -69 41 -106 43 -820 42 -619 0 -692 -2 -737 -17z"/>
<path d="M3189 2956 c-81 -29 -142 -84 -171 -153 -7 -17 -12 -103 -14 -218 -1
-104 -3 -195 -3 -200 -1 -7 -78 -11 -219 -11 -199 -1 -221 -3 -265 -22 -60
-27 -93 -52 -128 -100 -72 -98 -47 -250 53 -325 78 -58 82 -59 328 -62 113 -2
212 -4 220 -4 13 -1 15 -28 14 -183 0 -101 4 -196 8 -213 5 -16 10 -36 12 -43
1 -7 20 -33 41 -59 123 -147 383 -122 469 46 24 46 27 76 28 266 0 94 2 175 4
180 3 6 88 10 227 10 216 1 223 1 271 25 52 27 108 79 133 126 9 16 17 58 18
94 3 80 -24 140 -86 194 -71 60 -115 69 -354 70 l-210 1 -2 160 c-3 235 -3
236 -25 282 -19 40 -73 103 -89 103 -4 0 -14 6 -21 13 -36 35 -170 48 -239 23z"/>
<path d="M5539 2748 c-90 -13 -148 -49 -201 -126 -29 -42 -32 -55 -33 -117 0
-95 33 -159 110 -211 74 -51 69 -51 835 -49 657 1 718 2 754 18 112 50 178
148 169 255 -7 87 -62 161 -150 203 l-65 31 -688 2 c-378 0 -707 -2 -731 -6z"/>
<path d="M5625 1989 c-71 -3 -143 -10 -158 -17 -66 -28 -142 -106 -155 -160
-34 -142 37 -268 178 -314 38 -12 160 -14 761 -14 l716 1 58 30 c65 33 127
104 141 159 31 130 -48 267 -176 301 -3 1 -12 5 -21 9 -19 8 -1162 13 -1344 5z"/>
</g>
</svg>
